<?xml version="1.0" encoding="UTF-8"?>
<svg version="1.0" viewBox="0 0 2380 1040" xmlns="http://www.w3.org/2000/svg">
<g fill="#dbab32">
<path d="m252 785c-110-34-179-101-224-218-55-141-6-318 117-424 124-108 360-156 535-109 86 22 189 74 277 138 74 55 91 74 49 58-78-29-222 59-247 152-6 23-15 69-20 102-5 34-21 85-35 114-48 98-163 192-234 191-16 0-8-5 22-13 102-28 158-94 158-188 0-109-37-140-237-198-126-36-153-55-135-95 9-19 20-25 44-27 89-4 133 14 144 57 6 24 9 25 85 25h79v-30c0-43-34-104-72-133-44-34-98-47-189-47-145 0-239 49-257 135-27 128 41 202 232 250 121 30 136 38 136 83 0 17-9 27-35 38-71 29-158 7-178-46l-11-30h-89-89l7 33c25 115 109 172 280 187l80 7-75 1c-41 0-94-5-118-13z"/>
<path d="m2373 575c0-22 2-30 4-17 2 12 2 30 0 40-3 9-5-1-4-23z"/>
<path d="m2373 460c0-25 2-35 4-22 2 12 2 32 0 45-2 12-4 2-4-23z"/>
</g>
<g fill="#064970">
<path d="m886 1010c-27-11-62-32-79-47-33-31-66-96-67-130 0-22 4-23 65-23 50 0 65 3 65 14 0 8 11 28 25 45 34 39 93 50 153 26 52-21 72-56 72-126v-52l-22 21c-49 45-151 56-223 23-188-85-176-435 17-515 70-29 159-15 207 33l21 21v-30-30h70 70v307c0 291-1 309-21 350-54 112-220 165-353 113zm174-355c44-23 64-69 63-147 0-83-23-126-77-147-33-13-44-13-79 0-54 19-77 63-77 147 0 126 79 194 170 147z"/>
<path d="m1862 638l3-393 68-3 67-3v32 33l28-26c56-54 135-63 218-24 91 42 126 114 126 261 0 82-4 110-20 146-42 89-100 129-190 129-49 0-130-33-139-56-16-42-23 3-23 141v155h-70-70l2-392zm307 19c42-21 64-71 65-146 0-81-22-128-75-153-47-24-99-10-131 35-20 27-23 44-23 117 0 65 4 91 17 110 34 47 96 63 147 37z"/>
<path d="m1395 771c-51-24-75-65-75-131 0-65 23-114 65-140 18-11 79-29 135-40 112-21 130-31 130-66 0-31-36-54-85-54-46 0-82 21-96 56-8 23-13 25-71 22l-63-3 3-30c6-53 36-99 83-125 35-20 61-25 134-28 83-3 94-1 144 25 89 46 95 66 99 316l4 207h-71c-64 0-71-2-71-20 0-11-1-20-2-20-2 0-25 11-52 25-61 31-151 34-211 6zm180-91c49-18 75-58 75-112 0-43-2-48-17-39-10 5-44 14-76 21-66 13-97 38-97 77 0 54 51 77 115 53z"/>
</g>
</svg>
