<?xml version="1.0" encoding="UTF-8"?>
<!DOCTYPE svg  PUBLIC '-//W3C//DTD SVG 20010904//EN'  'http://www.w3.org/TR/2001/REC-SVG-20010904/DTD/svg10.dtd'>
<svg version="1.0" viewBox="0 0 1440 1440" xmlns="http://www.w3.org/2000/svg">
<g fill="#f4a90e">
<path d="m605 1365c-97-24-224-107-212-139 6-14 26-16 157-16h150v-30-30h-189-189l-26-30c-27-33-51-103-42-126 4-11 50-14 250-14h244l44 33c102 77 118 217 34 305-59 62-113 74-221 47z"/>
<path d="m912 1348c-7-7-4-22 9-48 16-29 20-58 20-120 0-72-4-88-30-135-16-29-27-56-24-59 4-3 82-6 175-6 192 0 191 0 162 75-28 74-49 95-95 95-36 0-39 2-39 28 0 15 5 33 12 40 15 15-10 44-79 89-68 43-98 54-111 41z"/>
<path d="m230 890c-18-33 18-160 45-160 11 0 15-10 15-36 0-33 53-155 82-191 10-13 99-18 110-7 4 3-7 32-23 65-42 85-47 143-19 221 12 35 29 71 37 80 9 10 13 24 10 33-5 12-28 15-126 15-109 0-121-2-131-20z"/>
<path d="m648 900c-51-15-100-53-129-99-59-93-30-216 68-284l40-27 243 2 243 3 24 40c36 61 54 105 48 115-4 6-110 10-261 10h-254v35 35h280 280l12 28c6 15 12 54 12 87l1 60-290 2c-159 1-302-2-317-7z"/>
<path d="m455 401c-6-10 20-51 74-120 33-41 33-41 102-41h69v-35c0-30-3-35-24-35-41 0-40-18 4-73 55-69 66-74 96-46 60 56 104 125 104 163 0 56-37 123-89 162l-46 34h-142c-78 0-144-4-148-9z"/>
<path d="m886 402c-3-5 2-22 11-38s22-41 30-56 18-30 22-33c12-7 93 105 87 121s-141 21-150 6z"/>
</g>
</svg>
